<svg fill="none" height="100" viewBox="0 0 100 100" width="100" xmlns="http://www.w3.org/2000/svg"><path d="m33.515 69.712c.454.694 1.385.888 2.076.436.693-.453.889-1.383.436-2.076-.935-1.43-2.739-2.471-4.742-2.831v-2.782c0-.828-.672-1.5-1.5-1.5s-1.5.672-1.5 1.5v2.785c-2.925.58-4.986 2.84-4.986 5.711 0 2.87 2.062 5.129 4.986 5.709v5.654c-.974-.274-1.827-.785-2.23-1.402-.455-.694-1.385-.887-2.076-.436-.693.453-.889 1.383-.436 2.076.936 1.432 2.739 2.473 4.742 2.833v2.782c0 .828.672 1.5 1.5 1.5s1.5-.672 1.5-1.5v-2.785c2.925-.58 4.986-2.84 4.986-5.711s-2.062-5.131-4.986-5.711v-5.652c.974.273 1.827.783 2.23 1.4zm-5.231 3.844c-1.203-.436-1.986-1.395-1.986-2.602 0-1.208.783-2.168 1.986-2.604zm4.987 6.119c0 1.208-.783 2.168-1.986 2.604v-5.207c1.202.435 1.986 1.395 1.986 2.603zm55.292-40.699h-3.125v-11.4c0-4.136-3.364-7.5-7.5-7.5h-63.628c-1.859 0-3.372-1.513-3.372-3.373s1.513-3.373 3.372-3.373h62.13c.828 0 1.5-.672 1.5-1.5s-.672-1.5-1.5-1.5h-62.13c-3.514 0-6.37201 2.859-6.37201 6.373v55.049c0 4.136 3.36401 7.5 7.50001 7.5h2.188c.828 0 1.5-.672 1.5-1.5s-.672-1.5-1.5-1.5h-2.188c-2.481 0-4.5-2.019-4.5-4.5v-49.652c.979.614 2.133.976 3.372.976h63.628c2.481 0 4.5 2.019 4.5 4.5v11.4h-13.125c-1.93 0-3.5 1.57-3.5 3.5v14.375c0 1.93 1.57 3.5 3.5 3.5h13.125v11.4c0 2.481-2.019 4.5-4.5 4.5h-35.312c-.828 0-1.5.672-1.5 1.5s.672 1.5 1.5 1.5h35.312c4.136 0 7.5-3.364 7.5-7.5v-11.4h3.125c1.93 0 3.5-1.57 3.5-3.5v-14.375c0-1.93-1.571-3.5-3.5-3.5zm.5 17.875c0 .275-.225.5-.5.5h-19.25c-.275 0-.5-.225-.5-.5v-14.375c0-.275.225-.5.5-.5h19.25c.275 0 .5.225.5.5zm-15.313-12.219c-.828 0-1.5.672-1.5 1.5v7.063c0 .828.672 1.5 1.5 1.5s1.5-.672 1.5-1.5v-7.063c0-.828-.672-1.5-1.5-1.5zm2.69-29.43h-61.002c-.828 0-1.5.672-1.5 1.5s.672 1.5 1.5 1.5h61.002c.828 0 1.5-.672 1.5-1.5s-.671-1.5-1.5-1.5z" fill="#22543d"/></svg>